<svg xmlns="http://www.w3.org/2000/svg" viewBox="0 0 30 17"><defs><style>.cls-1{fill:#fff;}</style></defs><title>code</title><g id="Layer_2" data-name="Layer 2"><g id="Layer_1-2" data-name="Layer 1"><path class="cls-1" d="M19.5,0a.51.51,0,0,0-.44.26l-9,16a.5.5,0,0,0,.87.49l9-16A.5.5,0,0,0,19.5,0Zm3,2a.48.48,0,0,1,.3.13l7,6a.5.5,0,0,1,0,.76l-7,6c-.48.43-1.14-.36-.65-.76L28.73,8.5,22.18,2.88A.5.5,0,0,1,22.53,2ZM7.47,2a.48.48,0,0,0-.3.13l-7,6a.5.5,0,0,0,0,.76l7,6c.48.43,1.14-.36.65-.76L1.27,8.5,7.82,2.88A.5.5,0,0,0,7.47,2Z"/></g></g></svg>