<svg xmlns="http://www.w3.org/2000/svg" viewBox="0 0 30 28"><defs><style>.cls-1{fill:#fff;}</style></defs><title>cust-feedback</title><g id="Layer_2" data-name="Layer 2"><g id="Layer_1-2" data-name="Layer 1"><path class="cls-1" d="M20.5,8s-.3,0-.4.2l-5.4,5.5-.6.3a.6.6,0,0,1-.6-.3L11,11.2c-.6-.5-1.3.2-.8.7l2.4,2.4a2.16,2.16,0,0,0,1.4.6,2,2,0,0,0,1.4-.6L21,9C21.2,8.6,21,8,20.5,8ZM1.5,0A1.54,1.54,0,0,0,0,1.5v19A1.54,1.54,0,0,0,1.5,22H5v4.5a2,2,0,0,0,.2,1c0,.2.4.4.6.5a2.29,2.29,0,0,0,1.6-.7L12.7,22H28.5A1.54,1.54,0,0,0,30,20.5V1.5A1.54,1.54,0,0,0,28.5,0Zm0,1h27a.47.47,0,0,1,.5.5v19a.47.47,0,0,1-.5.5H12.1L6.7,26.7c-.5.5-.6,0-.6-.2v-5a.47.47,0,0,0-.5-.5h-4a.47.47,0,0,1-.5-.5V1.5A.47.47,0,0,1,1.6,1Z"/></g></g></svg>