<svg xmlns="http://www.w3.org/2000/svg" viewBox="0 0 30 22"><defs><style>.cls-1{fill:#fff;}</style></defs><title>designCard</title><g id="Layer_2" data-name="Layer 2"><g id="Layer_1-2" data-name="Layer 1"><path class="cls-1" d="M12.5,14h13a.5.5,0,0,1,0,1h-13a.5.5,0,0,1,0-1Zm0-3h13a.5.5,0,0,1,0,1h-13a.5.5,0,0,1,0-1Zm-7-2A1.51,1.51,0,0,0,4,10.5v5A1.51,1.51,0,0,0,5.5,17h3A1.51,1.51,0,0,0,10,15.5v-5A1.51,1.51,0,0,0,8.5,9Zm0,1h3a.48.48,0,0,1,.5.5v5a.48.48,0,0,1-.5.5h-3a.48.48,0,0,1-.5-.5v-5A.48.48,0,0,1,5.5,10Zm-3-6h25a.5.5,0,0,1,0,1H2.5a.5.5,0,0,1,0-1ZM7,2.5A.5.5,0,1,1,6.5,2,.5.5,0,0,1,7,2.5Zm-2,0A.5.5,0,1,1,4.5,2,.5.5,0,0,1,5,2.5Zm-2,0A.5.5,0,1,1,2.5,2,.5.5,0,0,1,3,2.5ZM1.5,0A1.51,1.51,0,0,0,0,1.5v19A1.51,1.51,0,0,0,1.5,22h27A1.51,1.51,0,0,0,30,20.5V1.5A1.51,1.51,0,0,0,28.5,0Zm0,1h27a.48.48,0,0,1,.5.5v19a.48.48,0,0,1-.5.5H1.5a.48.48,0,0,1-.5-.5V1.5A.48.48,0,0,1,1.5,1Z"/></g></g></svg>