<svg xmlns="http://www.w3.org/2000/svg" viewBox="0 0 30 30"><defs><style>.cls-1{fill:#fff;}</style></defs><title>extention</title><g id="Layer_2" data-name="Layer 2"><g id="Layer_1-2" data-name="Layer 1"><path class="cls-1" d="M23.56.43a1.53,1.53,0,0,0-2.12,0l-6,6a1.51,1.51,0,0,0,0,2.12l6,6a1.51,1.51,0,0,0,2.12,0l6-6a1.51,1.51,0,0,0,0-2.12Zm-.71.71,6,6a.48.48,0,0,1,0,.7l-6,6a.48.48,0,0,1-.7,0l-6-6a.48.48,0,0,1,0-.7l6-6A.48.48,0,0,1,22.85,1.14ZM16.5,18A1.51,1.51,0,0,0,15,19.5v9A1.51,1.51,0,0,0,16.5,30h9A1.51,1.51,0,0,0,27,28.5v-9A1.51,1.51,0,0,0,25.5,18Zm0,1h9a.48.48,0,0,1,.5.5v9a.49.49,0,0,1-.5.5h-9a.49.49,0,0,1-.5-.5v-9A.48.48,0,0,1,16.5,19ZM1.5,3A1.51,1.51,0,0,0,0,4.5v9A1.51,1.51,0,0,0,1.5,15h9A1.51,1.51,0,0,0,12,13.5v-9A1.51,1.51,0,0,0,10.5,3Zm0,1h9a.48.48,0,0,1,.5.5v9a.48.48,0,0,1-.5.5h-9a.48.48,0,0,1-.5-.5v-9A.48.48,0,0,1,1.5,4Zm0,14A1.51,1.51,0,0,0,0,19.5v9A1.51,1.51,0,0,0,1.5,30h9A1.51,1.51,0,0,0,12,28.5v-9A1.51,1.51,0,0,0,10.5,18Zm0,1h9a.48.48,0,0,1,.5.5v9a.49.49,0,0,1-.5.5h-9a.49.49,0,0,1-.5-.5v-9A.48.48,0,0,1,1.5,19Z"/></g></g></svg>