<svg xmlns="http://www.w3.org/2000/svg" viewBox="0 0 26 30"><defs><style>.cls-1{fill:#fff;}</style></defs><title>flag</title><g id="Layer_2" data-name="Layer 2"><g id="Layer_1-2" data-name="Layer 1"><path class="cls-1" d="M4.5,1a.5.5,0,0,0,0,1H24.21c1.13,0,.8.37.61.69h0l-3.71,5a.51.51,0,0,0,0,.6l3.7,5h0c.37.53.17.7-.6.7H4.5a.5.5,0,0,0,0,1H24.19a1.87,1.87,0,0,0,1.6-.6,1.12,1.12,0,0,0,.2-.85,2.1,2.1,0,0,0-.39-.85L22.12,8,25.6,3.31a1.44,1.44,0,0,0,.26-1.58A1.77,1.77,0,0,0,24.21,1Zm-3-1A1.51,1.51,0,0,0,0,1.5v27A1.51,1.51,0,0,0,1.5,30,1.51,1.51,0,0,0,3,28.5V1.5A1.51,1.51,0,0,0,1.5,0Zm0,1a.48.48,0,0,1,.5.5v27a.48.48,0,0,1-.5.5.48.48,0,0,1-.5-.5V1.5A.48.48,0,0,1,1.5,1Z"/></g></g></svg>