<svg xmlns="http://www.w3.org/2000/svg" viewBox="0 0 30 30"><defs><style>.cls-1{fill:#fff;}</style></defs><title>hot-cup</title><g id="Layer_2" data-name="Layer 2"><g id="Layer_1-2" data-name="Layer 1"><path class="cls-1" d="M11.5,0a.5.5,0,0,1,.5.5v4a.5.5,0,0,1-1,0V.5A.5.5,0,0,1,11.5,0Zm5,0a.5.5,0,0,1,.5.5v4a.5.5,0,0,1-1,0V.5A.5.5,0,0,1,16.5,0ZM6.5,0A.5.5,0,0,1,7,.5v4a.5.5,0,0,1-1,0V.5A.5.5,0,0,1,6.5,0Zm-3,9h16a.5.5,0,0,1,0,1H3.5a.5.5,0,0,1,0-1Zm21-1a.5.5,0,0,0,0,1h1a3.5,3.5,0,0,1,0,7h-1a.5.5,0,0,0,0,1h1a4.5,4.5,0,0,0,0-9ZM.5,6a.5.5,0,0,0-.5.5v12A11.48,11.48,0,0,0,6.82,29H.5a.5.5,0,0,0,0,1h22a.5.5,0,0,0,0-1H16.18A11.48,11.48,0,0,0,23,18.5V6.5a.5.5,0,0,0-1,0v12a10.5,10.5,0,0,1-21,0V6.5A.5.5,0,0,0,.5,6Z"/></g></g></svg>