<svg xmlns="http://www.w3.org/2000/svg" viewBox="0 0 30 26"><defs><style>.cls-1{fill:#fff;}</style></defs><title>imgSlider</title><g id="Layer_2" data-name="Layer 2"><g id="Layer_1-2" data-name="Layer 1"><path class="cls-1" d="M19.5,7a1.43,1.43,0,0,0-1.09.47l-2.74,3.46c-.17.21-.55.07-.73,0L12.49,9.35a1.82,1.82,0,0,0-1-.35,1.4,1.4,0,0,0-1.07.43L7.14,13.16a.5.5,0,1,0,.74.67l3.3-3.73c.21-.23.53,0,.76.09l2.46,1.55h0a1.86,1.86,0,0,0,1,.26,1.18,1.18,0,0,0,1-.36l2.76-3.5c.22-.26.54-.14.75,0l2.25,1.69a.5.5,0,1,0,.62-.78L20.52,7.4A1.67,1.67,0,0,0,19.5,7Zm-12,8h15a.5.5,0,0,1,0,1H7.5a.5.5,0,0,1,0-1ZM11,3a2,2,0,1,0,2,2A2,2,0,0,0,11,3Zm0,1a1,1,0,1,1-1,1A1,1,0,0,1,11,4ZM25,23.5a.5.5,0,1,1-.5-.5A.5.5,0,0,1,25,23.5Zm-19,0a.5.5,0,1,1-.5-.5A.5.5,0,0,1,6,23.5ZM15,22a2,2,0,1,0,2,2A2,2,0,0,0,15,22Zm0,1a1,1,0,1,1-1,1A1,1,0,0,1,15,23ZM26.5,1a.5.5,0,0,0,0,1h2a.48.48,0,0,1,.5.5v14a.48.48,0,0,1-.5.5h-2a.5.5,0,0,0,0,1h2A1.51,1.51,0,0,0,30,16.5V2.5A1.51,1.51,0,0,0,28.5,1ZM1.5,1A1.51,1.51,0,0,0,0,2.5v14A1.51,1.51,0,0,0,1.5,18h2a.5.5,0,0,0,0-1h-2a.48.48,0,0,1-.5-.5V2.5A.48.48,0,0,1,1.5,2h2a.5.5,0,0,0,0-1Zm5-1A1.51,1.51,0,0,0,5,1.5v16A1.51,1.51,0,0,0,6.5,19h17A1.51,1.51,0,0,0,25,17.5V1.5A1.51,1.51,0,0,0,23.5,0Zm0,1h17a.48.48,0,0,1,.5.5v16a.48.48,0,0,1-.5.5H6.5a.48.48,0,0,1-.5-.5V1.5A.48.48,0,0,1,6.5,1Z"/></g></g></svg>