<svg xmlns="http://www.w3.org/2000/svg" viewBox="0 0 30 28"><defs><style>.cls-1{fill:#fff;}</style></defs><title>like</title><g id="Layer_2" data-name="Layer 2"><g id="Layer_1-2" data-name="Layer 1"><path class="cls-1" d="M1.5,10A1.51,1.51,0,0,0,0,11.5v15A1.51,1.51,0,0,0,1.5,28h7A1.51,1.51,0,0,0,10,26.5v-15A1.51,1.51,0,0,0,8.5,10Zm0,1h7a.48.48,0,0,1,.5.5v15a.48.48,0,0,1-.5.5h-7a.48.48,0,0,1-.5-.5v-15A.48.48,0,0,1,1.5,11Zm16-11a2.59,2.59,0,0,0-1.06.19,1.94,1.94,0,0,0-.86.78A7.24,7.24,0,0,0,15,4.5a8.42,8.42,0,0,1-3.78,6.58.51.51,0,0,0,.56.84C13.27,10.92,16,8.15,16,4.5a6.91,6.91,0,0,1,.44-3,.89.89,0,0,1,.4-.38A1.7,1.7,0,0,1,17.5,1c.48,0,.75.16,1,.77A8.26,8.26,0,0,1,19,5a14.41,14.41,0,0,1-1.88,6.17.5.5,0,0,0,.38.83h10a1.52,1.52,0,0,1,1.15.38A1.55,1.55,0,0,1,29,13.5a2.16,2.16,0,0,1-.8,1.6.5.5,0,0,0,0,.81,2,2,0,0,1,0,3.18.5.5,0,0,0,.06.85,1.54,1.54,0,0,1,0,2.62.5.5,0,0,0,0,.88A1.52,1.52,0,0,1,29,24.75a1.06,1.06,0,0,1-.43.93A1.83,1.83,0,0,1,27.5,26h-16a.5.5,0,0,0,0,1h16a2.77,2.77,0,0,0,1.68-.53A2.15,2.15,0,0,0,30,24.75,2.32,2.32,0,0,0,29.25,23,2.29,2.29,0,0,0,30,21.25a2.23,2.23,0,0,0-.78-1.78,2.74,2.74,0,0,0,.78-2,2.68,2.68,0,0,0-.82-2,2.71,2.71,0,0,0,.82-2,2.52,2.52,0,0,0-.64-1.82A2.51,2.51,0,0,0,27.5,11H18.41A12.48,12.48,0,0,0,20,5a9,9,0,0,0-.56-3.66A2.16,2.16,0,0,0,17.5,0Z"/></g></g></svg>