<svg xmlns="http://www.w3.org/2000/svg" viewBox="0 0 29.99 29.99"><defs><style>.cls-1{fill:#fff;}</style></defs><title>Asset 1</title><g id="Layer_2" data-name="Layer 2"><g id="Layer_1-2" data-name="Layer 1"><path class="cls-1" d="M6.49,26a.45.45,0,0,0-.34.15l-1,1a.5.5,0,1,0,.71.7l1-1A.49.49,0,0,0,6.49,26Zm-3,0a.45.45,0,0,0-.34.15l-1,1a.5.5,0,1,0,.71.7l1-1A.5.5,0,0,0,3.49,26Zm0-3a.45.45,0,0,0-.34.15l-1,1a.5.5,0,1,0,.71.7l1-1A.5.5,0,0,0,3.49,23Zm3-4a.5.5,0,0,0-.5.5V20a4,4,0,0,0,4,4h.5a.5.5,0,0,0,0-1H10a3,3,0,0,1-3-3v-.5A.48.48,0,0,0,6.5,19ZM21,5a4,4,0,1,0,4,4A4,4,0,0,0,21,5Zm0,1a3,3,0,1,1-3,3A3,3,0,0,1,21,6Zm6.31-6a11.16,11.16,0,0,0-2.87.24,24.56,24.56,0,0,0-7.19,2.8c-4.93,2.85-8.41,7.16-11.2,13.22A9,9,0,0,1,2.83,19.7c-.6.31-1,.35-1.29.19S1,19.22,1,18a13.17,13.17,0,0,1,1.14-4.48,10,10,0,0,1,1.07-1.89A1.54,1.54,0,0,1,4,11a.68.68,0,0,1,.53.19,1.15,1.15,0,0,1,.31.49,2.79,2.79,0,0,1,.16.82.5.5,0,1,0,1,0,3.48,3.48,0,0,0-.22-1.17,2.21,2.21,0,0,0-.58-.89A1.79,1.79,0,0,0,4,10a2.09,2.09,0,0,0-1.57,1,10.08,10.08,0,0,0-1.2,2.1A13.52,13.52,0,0,0,0,18c0,1.39.31,2.3,1,2.74a2.26,2.26,0,0,0,2.29-.15A9.19,9.19,0,0,0,7,16.7c2.74-5.94,6.07-10,10.8-12.77a23.37,23.37,0,0,1,6.89-2.68A9.79,9.79,0,0,1,27.24,1a2.2,2.2,0,0,1,1.33.41A2.27,2.27,0,0,1,29,2.76a10.75,10.75,0,0,1-.23,2.6,23.89,23.89,0,0,1-2.68,6.88C23.34,17,19.23,20.3,13.29,23a9.37,9.37,0,0,0-3.88,3.65A2.26,2.26,0,0,0,9.26,29c.44.7,1.36,1,2.74,1a13.52,13.52,0,0,0,4.89-1.23,9.66,9.66,0,0,0,2.1-1.2A2.09,2.09,0,0,0,20,26a1.83,1.83,0,0,0-.44-1.2,2.18,2.18,0,0,0-.88-.58A3.89,3.89,0,0,0,17.5,24a.5.5,0,1,0,0,1,2.79,2.79,0,0,1,.82.16,1.15,1.15,0,0,1,.49.31A.7.7,0,0,1,19,26a1.54,1.54,0,0,1-.63.79,9.17,9.17,0,0,1-1.88,1.07A13.16,13.16,0,0,1,12,29c-1.23,0-1.74-.29-1.9-.54s-.12-.69.2-1.29A8.87,8.87,0,0,1,13.71,24c6.06-2.8,10.38-6.28,13.22-11.21a24.56,24.56,0,0,0,2.8-7.19A11.12,11.12,0,0,0,30,2.69a3,3,0,0,0-.7-2,2.91,2.91,0,0,0-2-.7Z"/></g></g></svg>