<svg xmlns="http://www.w3.org/2000/svg" viewBox="0 0 30 30"><defs><style>.cls-1{fill:#fff;}</style></defs><title>user</title><g id="Layer_2" data-name="Layer 2"><g id="Layer_1-2" data-name="Layer 1"><path class="cls-1" d="M15,6a4.87,4.87,0,0,0-3.67,1.78A5.23,5.23,0,0,0,10,11v2.5A2.7,2.7,0,0,0,10.58,15,1.77,1.77,0,0,1,11,16v1a1.55,1.55,0,0,1-.75,1.57l-3.5,2A3.45,3.45,0,0,0,5.23,22,3.4,3.4,0,0,0,5,23.5a.5.5,0,0,0,1,0,2.52,2.52,0,0,1,.14-1.09,2.43,2.43,0,0,1,1.11-1l3.5-2A2.65,2.65,0,0,0,12,17V16a2.7,2.7,0,0,0-.58-1.53,1.77,1.77,0,0,1-.42-1V11a4.47,4.47,0,0,1,1.09-2.57,3.68,3.68,0,0,1,5.82,0A4.47,4.47,0,0,1,19,11v2.5a1.77,1.77,0,0,1-.42,1A2.7,2.7,0,0,0,18,16v1a2.64,2.64,0,0,0,1.25,2.43l3.5,2a2.43,2.43,0,0,1,1.11,1A2.52,2.52,0,0,1,24,23.5a.5.5,0,1,0,1,0A3.4,3.4,0,0,0,24.77,22a3.45,3.45,0,0,0-1.52-1.41l-3.5-2A1.55,1.55,0,0,1,19,17V16a1.77,1.77,0,0,1,.42-1A2.7,2.7,0,0,0,20,13.5V11a5.21,5.21,0,0,0-1.33-3.22A4.87,4.87,0,0,0,15,6Zm0-6A15,15,0,1,0,30,15,15,15,0,0,0,15,0Zm0,1A14,14,0,1,1,1,15,14,14,0,0,1,15,1Z"/></g></g></svg>