<?xml version="1.0" encoding="utf-8"?>
<!-- Generator: Adobe Illustrator 24.0.2, SVG Export Plug-In . SVG Version: 6.00 Build 0)  -->
<svg version="1.1" id="Layer_1" xmlns="http://www.w3.org/2000/svg" xmlns:xlink="http://www.w3.org/1999/xlink" x="0px" y="0px"
	 viewBox="0 0 30 30" style="enable-background:new 0 0 30 30;" xml:space="preserve">
<style type="text/css">
	.st0{fill:#FFFFFF;}
</style>
<path class="st0" d="M54.2,31c-0.1,0-0.3,0.1-0.3,0.1l-1,1c-0.5,0.5,0.2,1.2,0.7,0.7l1-1C54.9,31.6,54.6,31,54.2,31z M51.2,31
	c-0.1,0-0.3,0.1-0.3,0.1l-1,1c-0.5,0.5,0.2,1.2,0.7,0.7l1-1C51.9,31.6,51.6,31,51.2,31z M51.2,28c-0.1,0-0.3,0.1-0.3,0.1l-1,1
	c-0.5,0.5,0.2,1.2,0.7,0.7l1-1C51.9,28.6,51.6,28,51.2,28z M54.2,24c-0.3,0-0.5,0.2-0.5,0.5V25c0,2.2,1.8,4,4,4h0.5c0.7,0,0.6-1,0-1
	h-0.5c-1.7,0-3-1.3-3-3v-0.5C54.7,24.3,54.5,24,54.2,24z M68.7,10c-2.2,0-4,1.8-4,4s1.8,4,4,4c2.2,0,4-1.8,4-4S70.9,10,68.7,10z
	 M68.7,11c1.7,0,3,1.3,3,3s-1.3,3-3,3c-1.7,0-3-1.3-3-3S67,11,68.7,11z M75,5c-0.8-0.1-1.8,0-2.9,0.2C70,5.7,67.4,6.7,65,8.1
	c-4.9,2.8-8.4,7.2-11.2,13.2c-0.5,1.1-2,2.8-3.2,3.4c-0.6,0.3-1,0.4-1.3,0.2c-0.3-0.2-0.5-0.7-0.5-1.9c0-1.1,0.5-3,1.1-4.5
	c0.3-0.8,0.7-1.4,1.1-1.9c0.4-0.5,0.7-0.6,0.8-0.6c0.3,0,0.4,0.1,0.5,0.2c0.1,0.1,0.2,0.3,0.3,0.5c0.1,0.4,0.2,0.8,0.2,0.8
	c0,0.7,1,0.7,1,0c0,0,0-0.6-0.2-1.2c-0.1-0.3-0.3-0.6-0.6-0.9c-0.3-0.3-0.7-0.4-1.2-0.4c-0.7,0-1.1,0.5-1.6,1
	c-0.4,0.6-0.8,1.3-1.2,2.1c-0.7,1.6-1.2,3.5-1.2,4.9s0.3,2.3,1,2.7s1.5,0.2,2.3-0.2c1.5-0.8,3-2.5,3.7-3.9c2.7-5.9,6.1-10,10.8-12.8
	c2.4-1.4,4.9-2.3,6.9-2.7c1-0.2,1.9-0.3,2.6-0.2c0.7,0,1.1,0.2,1.3,0.4c0.2,0.2,0.4,0.6,0.4,1.3c0,0.7,0,1.6-0.2,2.6
	c-0.4,2-1.3,4.5-2.7,6.9C71,22,66.9,25.3,61,28.1c-1.4,0.6-3.1,2.1-3.9,3.7c-0.4,0.8-0.6,1.6-0.2,2.3c0.4,0.7,1.4,1,2.7,1
	c1.4,0,3.3-0.5,4.9-1.2c0.8-0.4,1.5-0.8,2.1-1.2c0.6-0.4,1-0.9,1-1.6c0-0.5-0.2-0.9-0.4-1.2c-0.3-0.3-0.6-0.5-0.9-0.6
	C65.8,29,65.2,29,65.2,29c-0.7,0-0.7,1,0,1c0,0,0.4,0,0.8,0.2c0.2,0.1,0.4,0.2,0.5,0.3c0.1,0.1,0.2,0.3,0.2,0.5
	c0,0.1-0.2,0.4-0.6,0.8c-0.5,0.4-1.1,0.7-1.9,1.1c-1.5,0.7-3.4,1.1-4.5,1.1c-1.2,0-1.7-0.3-1.9-0.5c-0.2-0.3-0.1-0.7,0.2-1.3
	c0.6-1.2,2.3-2.7,3.4-3.2c6.1-2.8,10.4-6.3,13.2-11.2c1.4-2.5,2.4-5,2.8-7.2c0.2-1.1,0.3-2.1,0.2-2.9c-0.1-0.8-0.2-1.5-0.7-2
	C76.5,5.3,75.8,5.1,75,5L75,5z"/>
<path class="st0" d="M20-16.6h13c0.3,0,0.5,0.2,0.5,0.5s-0.2,0.5-0.5,0.5H20c-0.3,0-0.5-0.2-0.5-0.5S19.7-16.6,20-16.6z M20-19.6h13
	c0.3,0,0.5,0.2,0.5,0.5s-0.2,0.5-0.5,0.5H20c-0.3,0-0.5-0.2-0.5-0.5S19.7-19.6,20-19.6z M13-21.6c-0.8,0-1.5,0.7-1.5,1.5v5
	c0,0.8,0.7,1.5,1.5,1.5h3c0.8,0,1.5-0.7,1.5-1.5v-5c0-0.8-0.7-1.5-1.5-1.5H13z M13-20.6h3c0.3,0,0.5,0.2,0.5,0.5v5
	c0,0.3-0.2,0.5-0.5,0.5h-3c-0.3,0-0.5-0.2-0.5-0.5v-5C12.5-20.4,12.7-20.6,13-20.6z M10-26.6h25c0.3,0,0.5,0.2,0.5,0.5
	s-0.2,0.5-0.5,0.5H10c-0.3,0-0.5-0.2-0.5-0.5S9.7-26.6,10-26.6z M14.5-28.1c0,0.3-0.2,0.5-0.5,0.5c-0.3,0-0.5-0.2-0.5-0.5
	s0.2-0.5,0.5-0.5C14.3-28.6,14.5-28.4,14.5-28.1z M12.5-28.1c0,0.3-0.2,0.5-0.5,0.5c-0.3,0-0.5-0.2-0.5-0.5s0.2-0.5,0.5-0.5
	C12.3-28.6,12.5-28.4,12.5-28.1z M10.5-28.1c0,0.3-0.2,0.5-0.5,0.5c-0.3,0-0.5-0.2-0.5-0.5s0.2-0.5,0.5-0.5
	C10.3-28.6,10.5-28.4,10.5-28.1z M9-30.6c-0.8,0-1.5,0.7-1.5,1.5v19c0,0.8,0.7,1.5,1.5,1.5h27c0.8,0,1.5-0.7,1.5-1.5v-19
	c0-0.8-0.7-1.5-1.5-1.5H9z M9-29.6h27c0.3,0,0.5,0.2,0.5,0.5v19c0,0.3-0.2,0.5-0.5,0.5H9c-0.3,0-0.5-0.2-0.5-0.5v-19
	C8.5-29.4,8.7-29.6,9-29.6z"/>
<path class="st0" d="M-18.3-21.5c-0.6-0.6-1.5-0.6-2.1,0l-6,6c-0.6,0.6-0.6,1.5,0,2.1l6,6c0.6,0.6,1.5,0.6,2.1,0l6-6
	c0.6-0.6,0.6-1.5,0-2.1L-18.3-21.5z M-19-20.8l6,6c0.2,0.2,0.2,0.5,0,0.7l-6,6c-0.2,0.2-0.5,0.2-0.7,0l-6-6c-0.2-0.2-0.2-0.5,0-0.7
	l6-6C-19.5-21-19.2-21-19-20.8z M-25.4-3.9c-0.8,0-1.5,0.7-1.5,1.5v9c0,0.8,0.7,1.5,1.5,1.5h9c0.8,0,1.5-0.7,1.5-1.5v-9
	c0-0.8-0.7-1.5-1.5-1.5H-25.4z M-25.4-2.9h9c0.3,0,0.5,0.2,0.5,0.5v9c0,0.3-0.2,0.5-0.5,0.5h-9c-0.3,0-0.5-0.2-0.5-0.5v-9
	C-25.9-2.7-25.7-2.9-25.4-2.9z M-40.4-18.9c-0.8,0-1.5,0.7-1.5,1.5v9c0,0.8,0.7,1.5,1.5,1.5h9c0.8,0,1.5-0.7,1.5-1.5v-9
	c0-0.8-0.7-1.5-1.5-1.5H-40.4z M-40.4-17.9h9c0.3,0,0.5,0.2,0.5,0.5v9c0,0.3-0.2,0.5-0.5,0.5h-9c-0.3,0-0.5-0.2-0.5-0.5v-9
	C-40.9-17.7-40.7-17.9-40.4-17.9z M-40.4-3.9c-0.8,0-1.5,0.7-1.5,1.5v9c0,0.8,0.7,1.5,1.5,1.5h9c0.8,0,1.5-0.7,1.5-1.5v-9
	c0-0.8-0.7-1.5-1.5-1.5H-40.4z M-40.4-2.9h9c0.3,0,0.5,0.2,0.5,0.5v9c0,0.3-0.2,0.5-0.5,0.5h-9c-0.3,0-0.5-0.2-0.5-0.5v-9
	C-40.9-2.7-40.7-2.9-40.4-2.9z"/>
<path class="st0" d="M71.7-30c-0.5,0-0.9,0.2-1.1,0.5l-2.7,3.5c-0.2,0.2-0.6,0.1-0.7,0l-2.5-1.5c-0.3-0.2-0.6-0.4-1-0.4
	c-0.4,0-0.8,0.1-1.1,0.4l-3.3,3.7c-0.4,0.5,0.3,1.2,0.7,0.7l3.3-3.7c0.2-0.2,0.5-0.1,0.8,0.1l2.5,1.6l0,0c0.3,0.2,0.7,0.3,1,0.3
	c0.3,0,0.7,0,1-0.4l2.8-3.5c0.2-0.3,0.5-0.1,0.7,0l2.3,1.7c0.5,0.5,1.2-0.4,0.6-0.8l-2.3-1.7C72.4-29.9,72.1-30,71.7-30z M59.7-22
	h15c0.3,0,0.5,0.2,0.5,0.5S74.9-21,74.7-21h-15c-0.3,0-0.5-0.2-0.5-0.5S59.4-22,59.7-22z M63.2-34c-1.1,0-2,0.9-2,2c0,1.1,0.9,2,2,2
	c1.1,0,2-0.9,2-2C65.2-33.1,64.3-34,63.2-34z M63.2-33c0.6,0,1,0.4,1,1c0,0.6-0.4,1-1,1s-1-0.4-1-1C62.2-32.6,62.6-33,63.2-33z
	 M77.2-13.5c0,0.3-0.2,0.5-0.5,0.5c-0.3,0-0.5-0.2-0.5-0.5s0.2-0.5,0.5-0.5C76.9-14,77.2-13.8,77.2-13.5z M58.2-13.5
	c0,0.3-0.2,0.5-0.5,0.5s-0.5-0.2-0.5-0.5s0.2-0.5,0.5-0.5S58.2-13.8,58.2-13.5z M67.2-15c-1.1,0-2,0.9-2,2s0.9,2,2,2
	c1.1,0,2-0.9,2-2S68.3-15,67.2-15z M67.2-14c0.6,0,1,0.4,1,1s-0.4,1-1,1c-0.6,0-1-0.4-1-1S66.6-14,67.2-14z M78.7-36
	c-0.7,0-0.6,1,0,1h2c0.3,0,0.5,0.2,0.5,0.5v14c0,0.3-0.2,0.5-0.5,0.5h-2c-0.7,0-0.7,1,0,1h2c0.8,0,1.5-0.7,1.5-1.5v-14
	c0-0.8-0.7-1.5-1.5-1.5H78.7z M53.7-36c-0.8,0-1.5,0.7-1.5,1.5v14c0,0.8,0.7,1.5,1.5,1.5h2c0.7,0,0.7-1,0-1h-2
	c-0.3,0-0.5-0.2-0.5-0.5v-14c0-0.3,0.2-0.5,0.5-0.5h2c0.7,0,0.7-1,0-1H53.7z M58.7-37c-0.8,0-1.5,0.7-1.5,1.5v16
	c0,0.8,0.7,1.5,1.5,1.5h17c0.8,0,1.5-0.7,1.5-1.5v-16c0-0.8-0.7-1.5-1.5-1.5H58.7z M58.7-36h17c0.3,0,0.5,0.2,0.5,0.5v16
	c0,0.3-0.2,0.5-0.5,0.5h-17c-0.3,0-0.5-0.2-0.5-0.5v-16C58.2-35.8,58.4-36,58.7-36z"/>
<path class="st0" d="M-39,22.7c-0.8,0-1.5,0.7-1.5,1.5v15c0,0.8,0.7,1.5,1.5,1.5h7c0.8,0,1.5-0.7,1.5-1.5v-15c0-0.8-0.7-1.5-1.5-1.5
	H-39z M-39,23.7h7c0.3,0,0.5,0.2,0.5,0.5v15c0,0.3-0.2,0.5-0.5,0.5h-7c-0.3,0-0.5-0.2-0.5-0.5v-15C-39.5,23.9-39.3,23.7-39,23.7z
	 M-23,12.7c-0.4,0-0.7,0-1.1,0.2c-0.3,0.2-0.6,0.4-0.9,0.8c-0.4,0.7-0.6,1.8-0.6,3.5c0,3.2-2.3,5.6-3.8,6.6c-0.5,0.3,0,1.2,0.6,0.8
	c1.5-1,4.2-3.8,4.2-7.4c0-1.7,0.2-2.6,0.4-3c0.1-0.2,0.2-0.3,0.4-0.4c0.2-0.1,0.4-0.1,0.7-0.1c0.5,0,0.7,0.2,1,0.8
	c0.3,0.6,0.5,1.7,0.5,3.2c0,3-1.9,6.2-1.9,6.2c-0.3,0.3,0,0.8,0.4,0.8h10c0.6,0,0.9,0.1,1.1,0.4c0.2,0.2,0.4,0.6,0.4,1.1
	c0,1-0.8,1.6-0.8,1.6c-0.3,0.2-0.3,0.6,0,0.8c0,0,0.8,0.6,0.8,1.6c0,1-0.8,1.6-0.8,1.6c-0.3,0.2-0.3,0.7,0.1,0.9
	c0,0,0.7,0.3,0.7,1.3c0,1-0.7,1.3-0.7,1.3c-0.4,0.2-0.4,0.7,0,0.9c0,0,0.7,0.4,0.7,1.3c0,0.5-0.2,0.7-0.4,0.9
	c-0.3,0.2-0.7,0.3-1.1,0.3h-16c-0.7,0-0.6,1,0,1h16c0.6,0,1.2-0.2,1.7-0.5c0.5-0.4,0.8-1,0.8-1.7c0-0.9-0.4-1.4-0.7-1.7
	c0.4-0.3,0.7-0.9,0.7-1.8c0-0.9-0.4-1.4-0.8-1.8c0.4-0.4,0.8-1,0.8-2c0-1-0.5-1.6-0.8-2c0.4-0.4,0.8-1,0.8-2c0-0.7-0.2-1.4-0.6-1.8
	c-0.4-0.5-1.1-0.7-1.9-0.7h-9.1c0.6-0.8,1.6-3.5,1.6-6c0-1.6-0.2-2.8-0.6-3.7S-22.2,12.7-23,12.7z"/>
<path class="st0" d="M85.8,0.4c-0.6,0-0.7,1,0,1h19.7c1.1,0,0.8,0.4,0.6,0.7l0,0l-3.7,5c-0.1,0.2-0.1,0.4,0,0.6l3.7,5h0
	c0.4,0.5,0.2,0.7-0.6,0.7H85.8c-0.7,0-0.7,1,0,1h19.7c0.7,0,1.2-0.1,1.6-0.6c0.2-0.2,0.2-0.6,0.2-0.8c0-0.3-0.2-0.6-0.4-0.8
	l-3.5-4.7l3.5-4.7c0.4-0.5,0.5-1.1,0.3-1.6c-0.3-0.5-0.9-0.7-1.6-0.7L85.8,0.4z M82.8-0.6c-0.8,0-1.5,0.7-1.5,1.5v27
	c0,0.8,0.7,1.5,1.5,1.5c0.8,0,1.5-0.7,1.5-1.5v-27C84.3,0,83.7-0.6,82.8-0.6z M82.8,0.4c0.3,0,0.5,0.2,0.5,0.5v27
	c0,0.3-0.2,0.5-0.5,0.5c-0.3,0-0.5-0.2-0.5-0.5v-27C82.3,0.6,82.5,0.4,82.8,0.4z"/>
</svg>
